<svg xmlns="http://www.w3.org/2000/svg" width="272" height="272" viewBox="0 0 204 204"><g stroke="currentcolor" stroke-width=".1"><path d="M98.8 10.5c-.2.2-2.8.5-5.8.8-10.9 1.2-18.9 3.1-26.9 6.4-2 .9-3.8 1.5-4.1 1.5-.9-.1-13 7.4-17.4 10.8-5.3 4.1-17 16.8-21 22.9-4.2 6.3-10.4 18.3-11 21.3-.2.7-.6 2-.9 2.8-5.2 13.4-6.4 32-3.2 49.5 1.8 9.4 7.5 22.8 14.2 32.8 5 7.5 18.1 21.7 20.1 21.7.7 0 1.2.3 1.2.8 0 .4 1.8 1.8 4 3.2s4 2.9 4 3.4.3.7.6.3c.3-.3 2.3.4 4.3 1.7 9.6 5.9 20.7 6.9 29.6 2.6 5.1-2.4 10.5-7 10.5-8.9 0-.5.8-1.5 1.8-2 .9-.6 1.4-1.1 1-1.1s-.1-1.5.7-3.3c1.9-4.6 1.2-14.4-1.5-19.8-2.5-5-8.7-11.9-10.7-11.9-.7 0-1.3-.5-1.3-1.2 0-.6-.3-.8-.7-.5-1.1 1.1-7.5-3.3-13.4-9.3-5.3-5.3-11-14.9-11.6-19.4-.8-5.6-.9-13.7-.2-14.1.4-.3.6-1.3.5-2.3-.2-.9.3-3.2 1.1-4.9.7-1.8 1.3-3.4 1.2-3.5-1-1.6 10.3-17.3 11.5-16.1.3.4.6.1.6-.5 0-1.3 9.3-6.6 13.5-7.7 5.3-1.4 5.9-1.5 12-1.6 6.6-.1 17 2.9 21.6 6.2 1.5 1 3 1.9 3.4 1.9.7 0 5.2 4.5 8.5 8.6 1.9 2.4 5.7 10.3 6.2 12.9.1 1.1.9 2.6 1.6 3.3.7.8 1 1.8.6 2.3-.3.5 1.9 3.3 4.8 6.2 8.8 8.8 21.3 11.1 31.6 5.8 4.8-2.4 9.4-6.5 8.5-7.4-.3-.4-.2-.7.4-.7 2.4 0 5.6-10.4 5.5-18 0-4.4-4.7-17.9-8.4-24.5-1.6-2.8-3.4-6-4-7.3-.6-1.2-1.5-2.2-2-2.2-.4 0-.8-.4-.8-1 0-1.3-3.3-5.1-10.9-12.7-13.2-13-31.7-22.9-48.1-25.8-1.4-.2-3.9-.7-5.6-1-3.2-.6-15.2-1.3-15.6-1z"/><path d="M141 144.6c-8.2 2.4-15.5 9.2-17.9 16.5-1.3 4-2.1 12.6-1.3 13.4.3.3.7 1.2.8 1.9.9 6.5 9.6 15.5 17.2 18 5.8 1.9 15.6 1.5 20.5-.9 3.9-1.8 11.7-8.8 11.7-10.5 0-.5.5-1 1-1 .6 0 .9-.3.9-.8-.1-.4 0-.9.1-1.2 1.7-4.5 1.8-14.9.2-19-1.8-4.4-7.3-11.9-8.8-12-.6 0-1.7-.6-2.3-1.3-2.9-3.5-15-5.2-22.1-3.1z"/></g></svg>